<mxfile host="app.diagrams.net" modified="2020-12-08T09:52:17.967Z" agent="5.0 (Macintosh; Intel Mac OS X 10_13_2) AppleWebKit/537.36 (KHTML, like Gecko) Chrome/85.0.4183.102 Safari/537.36" etag="LBIO_aro9Qw1hoQSi_tI" version="13.8.0" type="github">
  <diagram id="uuYXE82NBK7OaKoCnniR" name="Page-1">
    <mxGraphModel dx="1426" dy="865" grid="1" gridSize="10" guides="1" tooltips="1" connect="1" arrows="1" fold="1" page="1" pageScale="1" pageWidth="827" pageHeight="1169" math="0" shadow="0">
      <root>
        <mxCell id="0" />
        <mxCell id="1" parent="0" />
        <mxCell id="kUqMKlsCzEXrxmU9Kn5D-3" value="" style="edgeStyle=orthogonalEdgeStyle;rounded=0;orthogonalLoop=1;jettySize=auto;html=1;entryX=0;entryY=0.5;entryDx=0;entryDy=0;" parent="1" source="kUqMKlsCzEXrxmU9Kn5D-1" target="kUqMKlsCzEXrxmU9Kn5D-9" edge="1">
          <mxGeometry relative="1" as="geometry">
            <mxPoint x="240" y="250" as="targetPoint" />
          </mxGeometry>
        </mxCell>
        <mxCell id="kUqMKlsCzEXrxmU9Kn5D-1" value="Java 文件" style="ellipse;whiteSpace=wrap;html=1;fillColor=#d5e8d4;strokeColor=#82b366;" parent="1" vertex="1">
          <mxGeometry x="40" y="200" width="120" height="80" as="geometry" />
        </mxCell>
        <mxCell id="kUqMKlsCzEXrxmU9Kn5D-5" value="" style="edgeStyle=orthogonalEdgeStyle;rounded=0;orthogonalLoop=1;jettySize=auto;html=1;entryX=0;entryY=0.5;entryDx=0;entryDy=0;" parent="1" source="kUqMKlsCzEXrxmU9Kn5D-2" target="kUqMKlsCzEXrxmU9Kn5D-11" edge="1">
          <mxGeometry relative="1" as="geometry">
            <mxPoint x="570" y="250" as="targetPoint" />
          </mxGeometry>
        </mxCell>
        <mxCell id="kUqMKlsCzEXrxmU9Kn5D-7" value="IO" style="edgeLabel;html=1;align=center;verticalAlign=middle;resizable=0;points=[];" parent="kUqMKlsCzEXrxmU9Kn5D-5" vertex="1" connectable="0">
          <mxGeometry x="0.025" y="2" relative="1" as="geometry">
            <mxPoint as="offset" />
          </mxGeometry>
        </mxCell>
        <mxCell id="kUqMKlsCzEXrxmU9Kn5D-2" value="Class 字节码文件" style="ellipse;whiteSpace=wrap;html=1;fillColor=#ffe6cc;strokeColor=#d79b00;" parent="1" vertex="1">
          <mxGeometry x="310" y="200" width="120" height="80" as="geometry" />
        </mxCell>
        <mxCell id="kUqMKlsCzEXrxmU9Kn5D-4" value="运行时 Class 类" style="ellipse;whiteSpace=wrap;html=1;fillColor=#dae8fc;strokeColor=#6c8ebf;" parent="1" vertex="1">
          <mxGeometry x="460" y="360" width="120" height="80" as="geometry" />
        </mxCell>
        <mxCell id="kUqMKlsCzEXrxmU9Kn5D-10" value="" style="edgeStyle=orthogonalEdgeStyle;rounded=0;orthogonalLoop=1;jettySize=auto;html=1;" parent="1" source="kUqMKlsCzEXrxmU9Kn5D-9" target="kUqMKlsCzEXrxmU9Kn5D-2" edge="1">
          <mxGeometry relative="1" as="geometry" />
        </mxCell>
        <mxCell id="kUqMKlsCzEXrxmU9Kn5D-13" value="编译" style="edgeLabel;html=1;align=center;verticalAlign=middle;resizable=0;points=[];" parent="kUqMKlsCzEXrxmU9Kn5D-10" vertex="1" connectable="0">
          <mxGeometry x="-0.2" y="3" relative="1" as="geometry">
            <mxPoint as="offset" />
          </mxGeometry>
        </mxCell>
        <mxCell id="kUqMKlsCzEXrxmU9Kn5D-9" value="编译器" style="rounded=0;whiteSpace=wrap;html=1;fillColor=#f5f5f5;strokeColor=#666666;fontColor=#333333;" parent="1" vertex="1">
          <mxGeometry x="180" y="220" width="80" height="40" as="geometry" />
        </mxCell>
        <mxCell id="kUqMKlsCzEXrxmU9Kn5D-12" value="" style="edgeStyle=orthogonalEdgeStyle;rounded=0;orthogonalLoop=1;jettySize=auto;html=1;entryX=0.5;entryY=0;entryDx=0;entryDy=0;" parent="1" source="kUqMKlsCzEXrxmU9Kn5D-11" target="kUqMKlsCzEXrxmU9Kn5D-15" edge="1">
          <mxGeometry relative="1" as="geometry">
            <mxPoint x="520" y="300" as="targetPoint" />
          </mxGeometry>
        </mxCell>
        <mxCell id="kUqMKlsCzEXrxmU9Kn5D-14" value="加载" style="edgeLabel;html=1;align=center;verticalAlign=middle;resizable=0;points=[];" parent="kUqMKlsCzEXrxmU9Kn5D-12" vertex="1" connectable="0">
          <mxGeometry x="-0.45" y="-2" relative="1" as="geometry">
            <mxPoint x="2" as="offset" />
          </mxGeometry>
        </mxCell>
        <mxCell id="kUqMKlsCzEXrxmU9Kn5D-11" value="JVM" style="rounded=0;whiteSpace=wrap;html=1;fillColor=#f5f5f5;strokeColor=#666666;fontColor=#333333;" parent="1" vertex="1">
          <mxGeometry x="480" y="220" width="80" height="40" as="geometry" />
        </mxCell>
        <mxCell id="kUqMKlsCzEXrxmU9Kn5D-16" value="" style="edgeStyle=orthogonalEdgeStyle;rounded=0;orthogonalLoop=1;jettySize=auto;html=1;" parent="1" source="kUqMKlsCzEXrxmU9Kn5D-15" target="kUqMKlsCzEXrxmU9Kn5D-4" edge="1">
          <mxGeometry relative="1" as="geometry" />
        </mxCell>
        <mxCell id="kUqMKlsCzEXrxmU9Kn5D-15" value="Java agent&amp;nbsp;" style="rounded=0;whiteSpace=wrap;html=1;fillColor=#f8cecc;strokeColor=#b85450;dashed=1;" parent="1" vertex="1">
          <mxGeometry x="482.5" y="300" width="75" height="40" as="geometry" />
        </mxCell>
        <mxCell id="kUqMKlsCzEXrxmU9Kn5D-34" value="" style="edgeStyle=orthogonalEdgeStyle;rounded=0;orthogonalLoop=1;jettySize=auto;html=1;entryX=0;entryY=0.5;entryDx=0;entryDy=0;" parent="1" source="kUqMKlsCzEXrxmU9Kn5D-36" target="kUqMKlsCzEXrxmU9Kn5D-40" edge="1">
          <mxGeometry relative="1" as="geometry">
            <mxPoint x="360" y="630" as="targetPoint" />
          </mxGeometry>
        </mxCell>
        <mxCell id="kUqMKlsCzEXrxmU9Kn5D-35" value="IO" style="edgeLabel;html=1;align=center;verticalAlign=middle;resizable=0;points=[];" parent="kUqMKlsCzEXrxmU9Kn5D-34" vertex="1" connectable="0">
          <mxGeometry x="0.025" y="2" relative="1" as="geometry">
            <mxPoint as="offset" />
          </mxGeometry>
        </mxCell>
        <mxCell id="kUqMKlsCzEXrxmU9Kn5D-36" value="Class1 字节码文件" style="ellipse;whiteSpace=wrap;html=1;fillColor=#ffe6cc;strokeColor=#d79b00;" parent="1" vertex="1">
          <mxGeometry x="100" y="580" width="120" height="80" as="geometry" />
        </mxCell>
        <mxCell id="kUqMKlsCzEXrxmU9Kn5D-37" value="运行时 Class1 类" style="ellipse;whiteSpace=wrap;html=1;fillColor=#dae8fc;strokeColor=#6c8ebf;" parent="1" vertex="1">
          <mxGeometry x="250" y="700" width="120" height="80" as="geometry" />
        </mxCell>
        <mxCell id="kUqMKlsCzEXrxmU9Kn5D-38" value="" style="edgeStyle=orthogonalEdgeStyle;rounded=0;orthogonalLoop=1;jettySize=auto;html=1;entryX=0;entryY=0;entryDx=0;entryDy=0;exitX=0.25;exitY=1;exitDx=0;exitDy=0;" parent="1" source="kUqMKlsCzEXrxmU9Kn5D-40" target="kUqMKlsCzEXrxmU9Kn5D-37" edge="1">
          <mxGeometry relative="1" as="geometry">
            <mxPoint x="310" y="680" as="targetPoint" />
          </mxGeometry>
        </mxCell>
        <mxCell id="kUqMKlsCzEXrxmU9Kn5D-39" value="1.加载" style="edgeLabel;html=1;align=center;verticalAlign=middle;resizable=0;points=[];" parent="kUqMKlsCzEXrxmU9Kn5D-38" vertex="1" connectable="0">
          <mxGeometry x="-0.45" y="-2" relative="1" as="geometry">
            <mxPoint x="2" y="3" as="offset" />
          </mxGeometry>
        </mxCell>
        <mxCell id="kUqMKlsCzEXrxmU9Kn5D-45" value="3. 卸载" style="edgeStyle=orthogonalEdgeStyle;rounded=0;orthogonalLoop=1;jettySize=auto;html=1;exitX=0.75;exitY=1;exitDx=0;exitDy=0;entryX=1;entryY=0;entryDx=0;entryDy=0;" parent="1" source="kUqMKlsCzEXrxmU9Kn5D-40" target="kUqMKlsCzEXrxmU9Kn5D-37" edge="1">
          <mxGeometry relative="1" as="geometry" />
        </mxCell>
        <mxCell id="kUqMKlsCzEXrxmU9Kn5D-47" value="" style="edgeStyle=orthogonalEdgeStyle;rounded=0;orthogonalLoop=1;jettySize=auto;html=1;" parent="1" source="kUqMKlsCzEXrxmU9Kn5D-40" target="kUqMKlsCzEXrxmU9Kn5D-46" edge="1">
          <mxGeometry relative="1" as="geometry" />
        </mxCell>
        <mxCell id="kUqMKlsCzEXrxmU9Kn5D-48" value="4. 加载，retransform" style="edgeLabel;html=1;align=center;verticalAlign=middle;resizable=0;points=[];" parent="kUqMKlsCzEXrxmU9Kn5D-47" vertex="1" connectable="0">
          <mxGeometry x="-0.3267" y="-2" relative="1" as="geometry">
            <mxPoint x="16" y="-2" as="offset" />
          </mxGeometry>
        </mxCell>
        <mxCell id="kUqMKlsCzEXrxmU9Kn5D-40" value="JVM" style="rounded=0;whiteSpace=wrap;html=1;fillColor=#f5f5f5;strokeColor=#666666;fontColor=#333333;" parent="1" vertex="1">
          <mxGeometry x="270" y="600" width="80" height="40" as="geometry" />
        </mxCell>
        <mxCell id="kUqMKlsCzEXrxmU9Kn5D-44" value="2. attach 加载代理 jar 包到目标 JVM" style="edgeStyle=orthogonalEdgeStyle;rounded=0;orthogonalLoop=1;jettySize=auto;html=1;" parent="1" source="kUqMKlsCzEXrxmU9Kn5D-43" target="kUqMKlsCzEXrxmU9Kn5D-40" edge="1">
          <mxGeometry relative="1" as="geometry" />
        </mxCell>
        <mxCell id="kUqMKlsCzEXrxmU9Kn5D-43" value="" style="ellipse;html=1;shape=endState;fillColor=#000000;strokeColor=#ff0000;" parent="1" vertex="1">
          <mxGeometry x="295" y="510" width="30" height="30" as="geometry" />
        </mxCell>
        <mxCell id="kUqMKlsCzEXrxmU9Kn5D-46" value="运行时 Class1 类" style="ellipse;whiteSpace=wrap;html=1;rounded=0;strokeColor=#9673a6;fillColor=#e1d5e7;" parent="1" vertex="1">
          <mxGeometry x="480" y="580" width="120" height="80" as="geometry" />
        </mxCell>
      </root>
    </mxGraphModel>
  </diagram>
</mxfile>
